<svg viewBox="0 0 4096 4096" xmlns="http://www.w3.org/2000/svg" xmlns:xlink="http://www.w3.org/1999/xlink"><clipPath id="a"><path d="m467.8 740.595h112.76v34.605h-112.76z"/></clipPath><g clip-path="url(#a)" transform="matrix(32.53267518668 0 0 -32.53267518668 -14961.666292625 26710.4767679714)"><path d="m0 0c-3.642 0-5.905 2.111-5.905 5.509 0 3.532 2.088 5.726 5.45 5.726l.284.002c.42 0 1.001-.013 1.794-.114v4.261h2.378v-15c0-0-2.258-.384-4.001-.384m-.021 9.364c-2.301 0-3.42-1.242-3.42-3.796 0-2.292 1.349-3.716 3.519-3.716.417 0 .895.026 1.545.083v7.278c-.651.103-1.173.151-1.644.151" transform="translate(548.5122 750.2229)"/><path d="m0 0-6.418 11.202-.002-11.202h-2.236v14.179h3.13l6.418-11.101-.002 11.101h2.264v-14.179z" transform="translate(515.9713 750.5651)"/><path d="m0 0c-1.08 0-2.208.12-3.55.379l-.142.027v1.982l.212-.047c1.182-.251 2.203-.468 3.223-.468.827 0 2.749.131 2.749 1.345 0 1.019-1.328 1.273-2.396 1.478l-.067.013c-.198.04-.386.076-.546.117-1.565.407-3.234 1.016-3.234 3.113 0 2.046 1.619 3.219 4.442 3.219 1.355 0 2.338-.147 3.128-.265l.386-.057v-1.92l-.206.035c-.894.165-1.942.334-2.952.334-1.119 0-2.452-.209-2.452-1.207 0-.827 1.09-1.064 2.351-1.338 1.763-.383 3.95-.861 3.95-3.266 0-2.208-1.785-3.474-4.896-3.474" transform="translate(536.4121 750.3482)"/><path d="m0 0c-2.461 0-4.739.432-4.739 3.572 0 3.416 3.523 3.416 5.627 3.416.211 0 1.2-.045 1.505-.057-.003 1.916-.029 2.373-2.809 2.373-1.102 0-2.326-.219-3.406-.411l-.206-.038v1.894l.141.028c1.251.256 2.458.381 3.689.381 2.694 0 4.976-.273 4.976-3.614v-7.289l-.163-.017c-1.867-.21-3.349-.238-4.615-.238m.828 5.299c-2.029 0-3.286-.299-3.286-1.785 0-1.72 1.605-1.864 3.109-1.864.564 0 1.575.072 1.884.095v3.496c-.436.017-1.569.058-1.707.058" transform="translate(559.1833 750.3482)"/><path d="m0 0c-2.461 0-4.738.432-4.738 3.572 0 3.416 3.522 3.416 5.626 3.416.211 0 1.2-.045 1.505-.057-.003 1.916-.029 2.373-2.809 2.373-1.102 0-2.325-.219-3.406-.411l-.206-.038v1.894l.141.028c1.252.256 2.458.381 3.689.381 2.694 0 4.977-.273 4.977-3.614v-7.289l-.164-.017c-1.866-.21-3.349-.238-4.615-.238m.829 5.299c-2.029 0-3.286-.299-3.286-1.785 0-1.72 1.604-1.864 3.109-1.864.563 0 1.574.072 1.883.095v3.496c-.436.017-1.569.058-1.706.058" transform="translate(525.846 750.3482)"/><path d="m0 0v4.65c-.928-.131-1.422-.131-1.819-.131-.94 0-1.986.205-2.796.548-1.81.752-2.891 2.666-2.891 5.12 0 1.227.298 3.467 2.296 4.673 1 .6 2.185.856 3.964.856.637 0 1.498-.05 2.329-.098l1.348-.069v-14.472zm-1.424 13.844c-2.413 0-3.638-1.23-3.638-3.657 0-3.121 1.828-3.776 3.362-3.776.372 0 .793 0 1.722.117v7.248c-.728.05-1.062.068-1.446.068" transform="translate(573.4232 745.7495)"/><g fill="#0087ba"><path d="m0 0-7.859-21.59c-.193-.533-.68-.922-1.265-.982v-.012h8.308c.651 0 1.208.414 1.416.994l7.86 21.59z" transform="translate(496.7007 773.1493)"/><path d="m0 0c.48 0 .903.238 1.161.6.028.038.122.17.187.351l2.884 7.922-1.686 4.626c-.216.514-.724.875-1.316.875-.479 0-.903-.237-1.161-.6-.028-.037-.14-.206-.187-.351l-2.882-7.919 1.692-4.645c.22-.505.722-.859 1.308-.859" transform="translate(486.9016 750.8953)"/><path d="m0 0h-8.398c-.652 0-1.207-.413-1.417-.993l-7.859-21.59h8.461l7.858 21.59c.203.561.731.962 1.355.988z" transform="translate(487.5172 765.6002)"/></g></g></svg>